# xmcd
#
# Track frame offsets: 
#        150
#        14017
#        26242
#        37673
#        54852
#
# Disc length: 989 seconds
#
# Revision: 0
# Processed by: cddbd v1.5.2PL0 Copyright (c) Steve Scherf et al.
# Submitted via: ExactAudioCopy v0.99pb4
#
DISCID=3303db05
DTITLE=MohaviSoul - Dozen Roses 
DYEAR=2013
DGENRE=Bluegrass
TTITLE0=Dozen Roses
TTITLE1=Just Won't Pay
TTITLE2=Get Lucky
TTITLE3=Every Second
TTITLE4=Minor Swing
EXTD=
EXTT0=
EXTT1=
EXTT2=
EXTT3=
EXTT4=
PLAYORDER=
